# Blender v2.79 (sub 0) OBJ File: 'Yinsh.blend'
# www.blender.org
mtllib Map.mtl
o Plane
v -1.000000 0.000000 1.000000
v 1.000000 0.000000 1.000000
v -1.000000 0.000000 -1.000000
v 1.000000 0.000000 -1.000000
v -1.000000 0.000000 1.000000
v 1.000000 0.000000 1.000000
v -1.000000 0.000000 2.342465
v 1.000000 0.000000 2.342465
v -1.000000 0.000000 -1.000000
v 1.000000 0.000000 -1.000000
v -1.000000 0.000000 -2.230680
v 1.000000 0.000000 -2.230680
vt 0.000000 0.000000
vt 1.000000 0.000000
vt 1.000000 1.000000
vt 0.000000 1.000000
vt 0.000000 0.000000
vt 1.000000 0.000000
vt 0.110504 0.871241
vt 0.027935 0.871241
vt 0.027935 0.815818
vt 0.110504 0.815818
vt 0.027935 0.871267
vt 0.110504 0.871267
vt 0.110504 0.922075
vt 0.027935 0.922075
vn 0.0000 1.0000 0.0000
vn 0.0000 0.0000 1.0000
usemtl Material.015
s off
f 1/1/1 2/2/1 4/3/1 3/4/1
f 2/2/2 1/1/2 5/5/2 6/6/2
f 6/7/1 5/8/1 7/9/1 8/10/1
f 9/11/1 10/12/1 12/13/1 11/14/1
