# Blender v2.79 (sub 0) OBJ File: 'Yinsh.blend'
# www.blender.org
mtllib Stone.mtl
o Cylinder.003
v 0.000000 0.151235 -0.743592
v 0.000000 -0.151235 -0.743592
v 0.145068 0.151235 -0.729304
v 0.145068 -0.151235 -0.729304
v 0.284560 0.151235 -0.686989
v 0.284560 -0.151235 -0.686989
v 0.413118 0.151235 -0.618274
v 0.413118 -0.151235 -0.618274
v 0.525799 0.151235 -0.525799
v 0.525799 -0.151235 -0.525799
v 0.618274 0.151235 -0.413117
v 0.618274 -0.151235 -0.413117
v 0.686989 0.151235 -0.284560
v 0.686989 -0.151235 -0.284560
v 0.729304 0.151235 -0.145068
v 0.729304 -0.151235 -0.145068
v 0.743592 0.151235 -0.000000
v 0.743592 -0.151235 -0.000000
v 0.729304 0.151235 0.145067
v 0.729304 -0.151235 0.145067
v 0.686989 0.151235 0.284560
v 0.686989 -0.151235 0.284560
v 0.618274 0.151235 0.413117
v 0.618274 -0.151235 0.413117
v 0.525799 0.151235 0.525799
v 0.525799 -0.151235 0.525799
v 0.413117 0.151235 0.618274
v 0.413117 -0.151235 0.618274
v 0.284560 0.151235 0.686989
v 0.284560 -0.151235 0.686989
v 0.145067 0.151235 0.729304
v 0.145067 -0.151235 0.729304
v -0.000000 0.151235 0.743592
v -0.000000 -0.151235 0.743592
v -0.145068 0.151235 0.729304
v -0.145068 -0.151235 0.729304
v -0.284561 0.151235 0.686989
v -0.284561 -0.151235 0.686989
v -0.413118 0.151235 0.618274
v -0.413118 -0.151235 0.618274
v -0.525799 0.151235 0.525799
v -0.525799 -0.151235 0.525799
v -0.618274 0.151235 0.413117
v -0.618274 -0.151235 0.413117
v -0.686990 0.151235 0.284560
v -0.686990 -0.151235 0.284560
v -0.729304 0.151235 0.145067
v -0.729304 -0.151235 0.145067
v -0.743592 0.151235 -0.000001
v -0.743592 -0.151235 -0.000001
v -0.729304 0.151235 -0.145068
v -0.729304 -0.151235 -0.145068
v -0.686989 0.151235 -0.284561
v -0.686989 -0.151235 -0.284561
v -0.618274 0.151235 -0.413118
v -0.618274 -0.151235 -0.413118
v -0.525798 0.151235 -0.525800
v -0.525798 -0.151235 -0.525800
v -0.413117 0.151235 -0.618275
v -0.413117 -0.151235 -0.618275
v -0.284559 0.151235 -0.686990
v -0.284559 -0.151235 -0.686990
v -0.145066 0.151235 -0.729304
v -0.145066 -0.151235 -0.729304
v 0.145068 -0.151235 -0.729304
v 0.000000 -0.151235 -0.743592
v 0.284560 -0.151235 -0.686989
v 0.413118 -0.151235 -0.618274
v 0.525799 -0.151235 -0.525799
v 0.618274 -0.151235 -0.413117
v 0.686989 -0.151235 -0.284560
v 0.729304 -0.151235 -0.145068
v 0.743592 -0.151235 -0.000000
v 0.729304 -0.151235 0.145067
v 0.686989 -0.151235 0.284560
v 0.618274 -0.151235 0.413117
v 0.525799 -0.151235 0.525799
v 0.413117 -0.151235 0.618274
v 0.284560 -0.151235 0.686989
v 0.145067 -0.151235 0.729304
v -0.000000 -0.151235 0.743592
v -0.145068 -0.151235 0.729304
v -0.284561 -0.151235 0.686989
v -0.413118 -0.151235 0.618274
v -0.525799 -0.151235 0.525799
v -0.618274 -0.151235 0.413117
v -0.686990 -0.151235 0.284560
v -0.729304 -0.151235 0.145067
v -0.743592 -0.151235 -0.000001
v -0.729304 -0.151235 -0.145068
v -0.686989 -0.151235 -0.284561
v -0.618274 -0.151235 -0.413118
v -0.525798 -0.151235 -0.525800
v -0.413117 -0.151235 -0.618275
v -0.284559 -0.151235 -0.686990
v -0.145066 -0.151235 -0.729304
v 0.132668 -0.151235 -0.666968
v 0.000000 -0.151235 -0.680035
v 0.260238 -0.151235 -0.628270
v 0.377807 -0.151235 -0.565428
v 0.480857 -0.151235 -0.480857
v 0.565428 -0.151235 -0.377807
v 0.628270 -0.151235 -0.260238
v 0.666968 -0.151235 -0.132668
v 0.680035 -0.151235 -0.000000
v 0.666968 -0.151235 0.132668
v 0.628270 -0.151235 0.260238
v 0.565428 -0.151235 0.377807
v 0.480857 -0.151235 0.480857
v 0.377807 -0.151235 0.565428
v 0.260238 -0.151235 0.628270
v 0.132668 -0.151235 0.666968
v -0.000000 -0.151235 0.680035
v -0.132668 -0.151235 0.666968
v -0.260238 -0.151235 0.628270
v -0.377807 -0.151235 0.565428
v -0.480858 -0.151235 0.480857
v -0.565429 -0.151235 0.377807
v -0.628270 -0.151235 0.260238
v -0.666968 -0.151235 0.132668
v -0.680035 -0.151235 -0.000001
v -0.666968 -0.151235 -0.132669
v -0.628270 -0.151235 -0.260239
v -0.565428 -0.151235 -0.377808
v -0.480857 -0.151235 -0.480858
v -0.377806 -0.151235 -0.565429
v -0.260237 -0.151235 -0.628271
v -0.132667 -0.151235 -0.666968
v 0.000000 0.151235 -0.743592
v 0.145068 0.151235 -0.729304
v 0.284560 0.151235 -0.686989
v 0.413118 0.151235 -0.618274
v 0.525799 0.151235 -0.525799
v 0.618274 0.151235 -0.413117
v 0.686989 0.151235 -0.284560
v 0.729304 0.151235 -0.145068
v 0.743592 0.151235 -0.000000
v 0.729304 0.151235 0.145067
v 0.686989 0.151235 0.284560
v 0.618274 0.151235 0.413117
v 0.525799 0.151235 0.525799
v 0.413117 0.151235 0.618274
v 0.284560 0.151235 0.686989
v 0.145067 0.151235 0.729304
v -0.000000 0.151235 0.743592
v -0.145068 0.151235 0.729304
v -0.284561 0.151235 0.686989
v -0.413118 0.151235 0.618274
v -0.525799 0.151235 0.525799
v -0.618274 0.151235 0.413117
v -0.686990 0.151235 0.284560
v -0.729304 0.151235 0.145067
v -0.743592 0.151235 -0.000001
v -0.729304 0.151235 -0.145068
v -0.686989 0.151235 -0.284561
v -0.618274 0.151235 -0.413118
v -0.525798 0.151235 -0.525800
v -0.413117 0.151235 -0.618275
v -0.284559 0.151235 -0.686990
v -0.145066 0.151235 -0.729304
v 0.000000 0.151235 -0.686478
v 0.133925 0.151235 -0.673288
v 0.262704 0.151235 -0.634223
v 0.381387 0.151235 -0.570786
v 0.485413 0.151235 -0.485413
v 0.570786 0.151235 -0.381387
v 0.634223 0.151235 -0.262704
v 0.673288 0.151235 -0.133925
v 0.686478 0.151235 -0.000000
v 0.673288 0.151235 0.133925
v 0.634223 0.151235 0.262704
v 0.570786 0.151235 0.381387
v 0.485413 0.151235 0.485413
v 0.381387 0.151235 0.570786
v 0.262704 0.151235 0.634223
v 0.133925 0.151235 0.673288
v -0.000000 0.151235 0.686478
v -0.133926 0.151235 0.673288
v -0.262704 0.151235 0.634223
v -0.381387 0.151235 0.570786
v -0.485414 0.151235 0.485413
v -0.570786 0.151235 0.381387
v -0.634223 0.151235 0.262703
v -0.673288 0.151235 0.133925
v -0.686478 0.151235 -0.000001
v -0.673288 0.151235 -0.133926
v -0.634223 0.151235 -0.262705
v -0.570785 0.151235 -0.381388
v -0.485413 0.151235 -0.485414
v -0.381386 0.151235 -0.570786
v -0.262703 0.151235 -0.634224
v -0.133924 0.151235 -0.673288
vt 0.500709 0.125675
vt 0.512677 0.125791
vt 0.512530 0.132771
vt 0.500561 0.132655
vt 0.524646 0.125907
vt 0.524498 0.132887
vt 0.536614 0.126023
vt 0.536466 0.133003
vt 0.548582 0.126139
vt 0.548434 0.133119
vt 0.560551 0.126255
vt 0.560403 0.133235
vt 0.572519 0.126371
vt 0.572371 0.133351
vt 0.584487 0.126487
vt 0.584339 0.133467
vt 0.596455 0.126603
vt 0.596307 0.133583
vt 0.608424 0.126719
vt 0.608276 0.133699
vt 0.620392 0.126835
vt 0.620244 0.133815
vt 0.632360 0.126951
vt 0.632212 0.133932
vt 0.644328 0.127067
vt 0.644181 0.134048
vt 0.656297 0.127183
vt 0.656149 0.134164
vt 0.668265 0.127299
vt 0.668117 0.134280
vt 0.287020 0.130971
vt 0.298830 0.130426
vt 0.299524 0.137314
vt 0.287714 0.137859
vt 0.310640 0.129881
vt 0.311334 0.136769
vt 0.322450 0.129336
vt 0.323144 0.136224
vt 0.334260 0.128791
vt 0.334954 0.135679
vt 0.346070 0.128246
vt 0.346764 0.135134
vt 0.357880 0.127701
vt 0.358574 0.134589
vt 0.369690 0.127156
vt 0.370384 0.134044
vt 0.381500 0.126611
vt 0.382194 0.133499
vt 0.393310 0.126066
vt 0.394004 0.132954
vt 0.405120 0.125521
vt 0.405814 0.132409
vt 0.416930 0.124976
vt 0.417278 0.131678
vt 0.428900 0.124979
vt 0.428752 0.131959
vt 0.440868 0.125095
vt 0.440720 0.132075
vt 0.452836 0.125211
vt 0.452688 0.132191
vt 0.464804 0.125327
vt 0.464657 0.132307
vt 0.476773 0.125443
vt 0.476625 0.132423
vt 0.361211 0.205723
vt 0.361441 0.205596
vt 0.374534 0.211611
vt 0.374398 0.211770
vt 0.488741 0.125559
vt 0.488593 0.132539
vt 0.685737 0.311714
vt 0.685292 0.311681
vt 0.685296 0.294684
vt 0.685741 0.294658
vt 0.377814 0.207721
vt 0.390096 0.211632
vt 0.387954 0.215718
vt 0.394524 0.134689
vt 0.394601 0.134822
vt 0.383939 0.138533
vt 0.383825 0.138409
vt 0.481221 0.167588
vt 0.481022 0.167606
vt 0.478414 0.160180
vt 0.478604 0.160138
vt 0.473876 0.153210
vt 0.474052 0.153146
vt 0.416045 0.218672
vt 0.416036 0.218503
vt 0.429857 0.217126
vt 0.429915 0.217288
vt 0.358944 0.157345
vt 0.359154 0.157416
vt 0.354366 0.165881
vt 0.354132 0.165835
vt 0.450427 0.136976
vt 0.450325 0.137095
vt 0.439921 0.133920
vt 0.439989 0.133790
vt 0.463745 0.203811
vt 0.463589 0.203708
vt 0.471076 0.197346
vt 0.471251 0.197426
vt 0.354392 0.195604
vt 0.354665 0.195547
vt 0.405851 0.132544
vt 0.481812 0.175268
vt 0.481610 0.175261
vt 0.401862 0.218200
vt 0.401901 0.218030
vt 0.365701 0.149852
vt 0.365882 0.149945
vt 0.459754 0.141375
vt 0.459623 0.141478
vt 0.454307 0.209404
vt 0.454174 0.209277
vt 0.351510 0.185172
vt 0.351780 0.185157
vt 0.417282 0.131815
vt 0.480336 0.182950
vt 0.480137 0.182919
vt 0.387867 0.215883
vt 0.374101 0.143498
vt 0.374250 0.143608
vt 0.467706 0.146825
vt 0.467549 0.146910
vt 0.442886 0.214113
vt 0.442785 0.213965
vt 0.351555 0.175167
vt 0.351809 0.175185
vt 0.428722 0.132096
vt 0.476801 0.190407
vt 0.476611 0.190351
vt 0.277991 0.590108
vt 0.291013 0.598899
vt 0.302119 0.610053
vt 0.310882 0.623139
vt 0.316965 0.637656
vt 0.320135 0.653045
vt 0.320270 0.668715
vt 0.317365 0.684063
vt 0.311531 0.698500
vt 0.302992 0.711472
vt 0.292077 0.722479
vt 0.279205 0.731098
vt 0.264871 0.736999
vt 0.249625 0.739955
vt 0.234054 0.739851
vt 0.218755 0.736693
vt 0.204318 0.730600
vt 0.191296 0.721809
vt 0.180190 0.710655
vt 0.171427 0.697569
vt 0.165343 0.683052
vt 0.162173 0.667663
vt 0.162038 0.651993
vt 0.164944 0.636644
vt 0.170778 0.622207
vt 0.179317 0.609236
vt 0.190232 0.598229
vt 0.203104 0.589609
vt 0.217439 0.583708
vt 0.232684 0.580753
vt 0.248255 0.580857
vt 0.263554 0.584015
vt 0.438286 0.137151
vt 0.428039 0.135531
vt 0.366197 0.201955
vt 0.476087 0.168067
vt 0.473699 0.161235
vt 0.447842 0.140038
vt 0.361392 0.194015
vt 0.366011 0.201951
vt 0.476603 0.175109
vt 0.456401 0.144049
vt 0.358443 0.184677
vt 0.475210 0.182148
vt 0.463701 0.149034
vt 0.358111 0.175539
vt 0.471908 0.188970
vt 0.469526 0.154824
vt 0.360180 0.166960
vt 0.466734 0.195368
vt 0.364370 0.159128
vt 0.459733 0.201145
vt 0.370401 0.152198
vt 0.450922 0.206109
vt 0.377984 0.146308
vt 0.440291 0.210332
vt 0.386810 0.141578
vt 0.428424 0.213129
vt 0.396547 0.138108
vt 0.415785 0.214325
vt 0.406836 0.135984
vt 0.402856 0.213836
vt 0.417288 0.131954
vt 0.417396 0.135291
vt 0.544831 0.216651
vt 0.545772 0.223356
vt 0.523001 0.226435
vt 0.520148 0.219990
vt 0.544791 0.216348
vt 0.520023 0.219698
vt 0.434232 0.328368
vt 0.434663 0.328283
vt 0.444283 0.344008
vt 0.443886 0.344148
vt 0.639203 0.370514
vt 0.638923 0.370277
vt 0.656733 0.358244
vt 0.657077 0.358439
vt 0.640201 0.235445
vt 0.639903 0.235681
vt 0.618408 0.226366
vt 0.618620 0.226095
vt 0.443885 0.262020
vt 0.444278 0.262165
vt 0.434660 0.277886
vt 0.434233 0.277795
vt 0.544819 0.389831
vt 0.544868 0.389530
vt 0.570035 0.389543
vt 0.570074 0.389845
vt 0.680407 0.278049
vt 0.680835 0.277966
vt 0.496915 0.226515
vt 0.496707 0.226246
vt 0.458252 0.358163
vt 0.457903 0.358353
vt 0.670730 0.344092
vt 0.671123 0.344238
vt 0.594835 0.219924
vt 0.594969 0.219632
vt 0.429757 0.294575
vt 0.429312 0.294542
vt 0.594723 0.386233
vt 0.594849 0.386525
vt 0.670950 0.262431
vt 0.671344 0.262295
vt 0.476013 0.235978
vt 0.475732 0.235742
vt 0.476034 0.370206
vt 0.475746 0.370438
vt 0.680374 0.328368
vt 0.680801 0.328459
vt 0.570033 0.216629
vt 0.570081 0.216327
vt 0.429758 0.311592
vt 0.429312 0.311618
vt 0.617984 0.379729
vt 0.618191 0.379998
vt 0.657437 0.248427
vt 0.657793 0.248242
vt 0.458240 0.248015
vt 0.457896 0.247820
vt 0.496948 0.379671
vt 0.496732 0.379937
vt 0.520055 0.386485
vt 0.520190 0.386196
vt 0.755711 0.567018
vt 0.771884 0.563714
vt 0.788317 0.563736
vt 0.804379 0.567084
vt 0.819453 0.573628
vt 0.832960 0.583118
vt 0.844379 0.595189
vt 0.853273 0.609377
vt 0.859300 0.625136
vt 0.862228 0.641861
vt 0.861944 0.658910
vt 0.858460 0.675626
vt 0.851909 0.691369
vt 0.842544 0.705532
vt 0.830723 0.717571
vt 0.816902 0.727024
vt 0.801611 0.733528
vt 0.785438 0.736832
vt 0.769004 0.736810
vt 0.752942 0.733463
vt 0.737868 0.726918
vt 0.724362 0.717428
vt 0.712943 0.705357
vt 0.704049 0.691169
vt 0.698022 0.675410
vt 0.695094 0.658685
vt 0.695378 0.641636
vt 0.698862 0.624920
vt 0.705413 0.609178
vt 0.714778 0.595015
vt 0.726599 0.582975
vt 0.740420 0.573522
vt 0.632653 0.365054
vt 0.649078 0.353949
vt 0.501568 0.232458
vt 0.661985 0.340890
vt 0.482287 0.241192
vt 0.670878 0.326383
vt 0.465896 0.252300
vt 0.675415 0.310991
vt 0.453021 0.265358
vt 0.675428 0.295309
vt 0.444156 0.279864
vt 0.670927 0.279946
vt 0.439642 0.295262
vt 0.662215 0.265447
vt 0.439652 0.310961
vt 0.649598 0.252744
vt 0.444185 0.326359
vt 0.634850 0.242146
vt 0.523123 0.379766
vt 0.545893 0.382836
vt 0.453070 0.340864
vt 0.569110 0.382842
vt 0.465965 0.353920
vt 0.613689 0.232550
vt 0.591906 0.226419
vt 0.591885 0.379784
vt 0.482377 0.365025
vt 0.569024 0.223344
vt 0.613341 0.373777
vt 0.501677 0.373752
vt 0.492165 0.417563
vt 0.492298 0.426577
vt 0.478184 0.426721
vt 0.477916 0.417709
vt 0.506414 0.417515
vt 0.506414 0.426529
vt 0.520664 0.417563
vt 0.520531 0.426577
vt 0.534913 0.417709
vt 0.534645 0.426721
vt 0.549158 0.417951
vt 0.548757 0.426961
vt 0.563400 0.418290
vt 0.562865 0.427296
vt 0.577635 0.418725
vt 0.576967 0.427728
vt 0.591863 0.419257
vt 0.591061 0.428255
vt 0.606083 0.419886
vt 0.605148 0.428878
vt 0.620293 0.420612
vt 0.619224 0.429597
vt 0.634491 0.421434
vt 0.633289 0.430411
vt 0.648676 0.422352
vt 0.647341 0.431321
vt 0.662847 0.423367
vt 0.661379 0.432326
vt 0.677002 0.424478
vt 0.675401 0.433427
vt 0.691140 0.425685
vt 0.689406 0.434622
vt 0.705260 0.426988
vt 0.703393 0.435913
vt 0.719359 0.428387
vt 0.717360 0.437299
vt 0.733437 0.429881
vt 0.731306 0.438780
vt 0.293470 0.428387
vt 0.295469 0.437299
vt 0.281523 0.438779
vt 0.279393 0.429881
vt 0.307570 0.426988
vt 0.309436 0.435913
vt 0.321689 0.425685
vt 0.323423 0.434622
vt 0.335827 0.424478
vt 0.337428 0.433426
vt 0.349982 0.423367
vt 0.351450 0.432326
vt 0.364153 0.422352
vt 0.365488 0.431321
vt 0.378338 0.421434
vt 0.379540 0.430411
vt 0.392536 0.420612
vt 0.393605 0.429597
vt 0.406746 0.419886
vt 0.407681 0.428878
vt 0.420966 0.419257
vt 0.421768 0.428255
vt 0.435194 0.418725
vt 0.435862 0.427728
vt 0.449429 0.418290
vt 0.449964 0.427296
vt 0.463671 0.417951
vt 0.464072 0.426961
vt 0.634544 0.242209
vn 0.0980 0.0000 -0.9952
vn 0.2903 0.0000 -0.9569
vn 0.4714 0.0000 -0.8819
vn 0.6344 0.0000 -0.7730
vn 0.7730 0.0000 -0.6344
vn 0.8819 0.0000 -0.4714
vn 0.9569 0.0000 -0.2903
vn 0.9952 0.0000 -0.0980
vn 0.9952 0.0000 0.0980
vn 0.9569 0.0000 0.2903
vn 0.8819 0.0000 0.4714
vn 0.7730 0.0000 0.6344
vn 0.6344 0.0000 0.7730
vn 0.4714 0.0000 0.8819
vn 0.2903 0.0000 0.9569
vn 0.0980 0.0000 0.9952
vn -0.0980 0.0000 0.9952
vn -0.2903 0.0000 0.9569
vn -0.4714 0.0000 0.8819
vn -0.6344 0.0000 0.7730
vn -0.7730 0.0000 0.6344
vn -0.8819 0.0000 0.4714
vn -0.9569 0.0000 0.2903
vn -0.9952 0.0000 0.0980
vn -0.9952 0.0000 -0.0980
vn -0.9569 0.0000 -0.2903
vn -0.8819 0.0000 -0.4714
vn -0.7730 0.0000 -0.6344
vn -0.6344 0.0000 -0.7730
vn -0.4714 0.0000 -0.8819
vn 0.0000 0.0000 1.0000
vn -0.2903 0.0000 -0.9569
vn -0.0980 0.0000 -0.9952
vn 0.0000 -1.0000 -0.0000
vn 0.0000 1.0000 -0.0000
vn -0.6342 -0.0212 -0.7728
vn -0.4713 -0.0212 -0.8817
vn -0.2902 -0.0212 -0.9567
vn -0.0980 -0.0212 -0.9950
vn 0.0980 -0.0212 -0.9950
vn 0.2902 -0.0212 -0.9567
vn 0.4713 -0.0212 -0.8817
vn 0.6343 -0.0212 -0.7728
vn 0.7728 -0.0212 -0.6343
vn 0.8817 -0.0212 -0.4713
vn 0.9567 -0.0212 -0.2902
vn 0.9950 -0.0212 -0.0980
vn 0.9950 -0.0212 0.0980
vn 0.9567 -0.0212 0.2902
vn 0.8817 -0.0212 0.4713
vn 0.7728 -0.0212 0.6343
vn 0.6343 -0.0212 0.7728
vn 0.4713 -0.0212 0.8817
vn 0.2902 -0.0212 0.9567
vn 0.0980 -0.0212 0.9950
vn -0.0980 -0.0212 0.9950
vn -0.2902 -0.0212 0.9567
vn -0.4713 -0.0212 0.8817
vn -0.6343 -0.0212 0.7728
vn -0.7728 -0.0212 0.6343
vn -0.8817 -0.0212 0.4713
vn -0.9567 -0.0212 0.2902
vn -0.9950 -0.0212 0.0980
vn -0.9950 -0.0212 -0.0980
vn -0.9567 -0.0212 -0.2902
vn -0.8817 -0.0212 -0.4713
vn -0.7728 -0.0212 -0.6343
usemtl Material.013
s off
f 1/1/1 3/2/1 4/3/1 2/4/1
f 3/2/2 5/5/2 6/6/2 4/3/2
f 5/5/3 7/7/3 8/8/3 6/6/3
f 7/7/4 9/9/4 10/10/4 8/8/4
f 9/9/5 11/11/5 12/12/5 10/10/5
f 11/11/6 13/13/6 14/14/6 12/12/6
f 13/13/7 15/15/7 16/16/7 14/14/7
f 15/15/8 17/17/8 18/18/8 16/16/8
f 17/17/9 19/19/9 20/20/9 18/18/9
f 19/19/10 21/21/10 22/22/10 20/20/10
f 21/21/11 23/23/11 24/24/11 22/22/11
f 23/23/12 25/25/12 26/26/12 24/24/12
f 25/25/13 27/27/13 28/28/13 26/26/13
f 27/27/14 29/29/14 30/30/14 28/28/14
f 29/31/15 31/32/15 32/33/15 30/34/15
f 31/32/16 33/35/16 34/36/16 32/33/16
f 33/35/17 35/37/17 36/38/17 34/36/17
f 35/37/18 37/39/18 38/40/18 36/38/18
f 37/39/19 39/41/19 40/42/19 38/40/19
f 39/41/20 41/43/20 42/44/20 40/42/20
f 41/43/21 43/45/21 44/46/21 42/44/21
f 43/45/22 45/47/22 46/48/22 44/46/22
f 45/47/23 47/49/23 48/50/23 46/48/23
f 47/49/24 49/51/24 50/52/24 48/50/24
f 49/51/25 51/53/25 52/54/25 50/52/25
f 51/53/26 53/55/26 54/56/26 52/54/26
f 53/55/27 55/57/27 56/58/27 54/56/27
f 55/57/28 57/59/28 58/60/28 56/58/28
f 57/59/29 59/61/29 60/62/29 58/60/29
f 59/61/30 61/63/30 62/64/30 60/62/30
f 30/65/31 79/66/31 78/67/31 28/68/31
f 61/63/32 63/69/32 64/70/32 62/64/32
f 63/69/33 1/1/33 2/4/33 64/70/33
f 19/71/31 138/72/31 139/73/31 21/74/31
f 78/67/34 110/75/34 109/76/34 77/77/34
f 48/78/31 88/79/31 87/80/31 46/81/31
f 4/82/31 65/83/31 66/84/31 2/85/31
f 2/85/31 66/84/31 96/86/31 64/87/31
f 22/88/31 75/89/31 74/90/31 20/91/31
f 40/92/31 84/93/31 83/94/31 38/95/31
f 58/96/31 93/97/31 92/98/31 56/99/31
f 14/100/31 71/101/31 70/102/31 12/103/31
f 32/104/31 80/105/31 79/66/31 30/65/31
f 50/52/31 89/106/31 88/79/31 48/78/31
f 6/107/31 67/108/31 65/83/31 4/82/31
f 24/109/31 76/110/31 75/89/31 22/88/31
f 42/111/31 85/112/31 84/93/31 40/92/31
f 60/113/31 94/114/31 93/97/31 58/96/31
f 16/115/31 72/116/31 71/101/31 14/100/31
f 34/117/31 81/118/31 80/105/31 32/104/31
f 52/54/31 90/119/31 89/106/31 50/52/31
f 8/120/31 68/121/31 67/108/31 6/107/31
f 26/122/31 77/77/31 76/110/31 24/109/31
f 44/123/31 86/124/31 85/112/31 42/111/31
f 62/125/31 95/126/31 94/114/31 60/113/31
f 18/127/31 73/128/31 72/116/31 16/115/31
f 36/129/31 82/130/31 81/118/31 34/117/31
f 54/56/31 91/131/31 90/119/31 52/54/31
f 10/132/31 69/133/31 68/121/31 8/120/31
f 28/68/31 78/67/31 77/77/31 26/122/31
f 46/81/31 87/80/31 86/124/31 44/123/31
f 64/87/31 96/86/31 95/126/31 62/125/31
f 20/91/31 74/90/31 73/128/31 18/127/31
f 38/95/31 83/94/31 82/130/31 36/129/31
f 56/99/31 92/98/31 91/131/31 54/56/31
f 12/103/31 70/102/31 69/133/31 10/132/31
f 97/134/34 99/135/34 100/136/34 101/137/34 102/138/34 103/139/34 104/140/34 105/141/34 106/142/34 107/143/34 108/144/34 109/145/34 110/146/34 111/147/34 112/148/34 113/149/34 114/150/34 115/151/34 116/152/34 117/153/34 118/154/34 119/155/34 120/156/34 121/157/34 122/158/34 123/159/34 124/160/34 125/161/34 126/162/34 127/163/34 128/164/34 98/165/34
f 92/98/34 124/166/34 123/167/34 91/131/34
f 79/66/34 111/168/34 110/75/34 78/67/34
f 65/83/34 97/169/34 98/170/34 66/84/34
f 93/97/34 125/171/34 124/166/34 92/98/34
f 80/105/34 112/172/34 111/173/34 79/66/34
f 67/108/34 99/174/34 97/169/34 65/83/34
f 94/114/34 126/175/34 125/171/34 93/97/34
f 81/118/34 113/176/34 112/172/34 80/105/34
f 68/121/34 100/177/34 99/174/34 67/108/34
f 95/126/34 127/178/34 126/175/34 94/114/34
f 82/130/34 114/179/34 113/176/34 81/118/34
f 69/133/34 101/180/34 100/177/34 68/121/34
f 96/86/34 128/181/34 127/178/34 95/126/34
f 83/94/34 115/182/34 114/179/34 82/130/34
f 70/102/34 102/183/34 101/180/34 69/133/34
f 66/84/34 98/170/34 128/181/34 96/86/34
f 84/93/34 116/184/34 115/182/34 83/94/34
f 71/101/34 103/185/34 102/183/34 70/102/34
f 85/112/34 117/186/34 116/184/34 84/93/34
f 72/116/34 104/187/34 103/185/34 71/101/34
f 86/124/34 118/188/34 117/186/34 85/112/34
f 73/128/34 105/189/34 104/187/34 72/116/34
f 87/80/34 119/190/34 118/188/34 86/124/34
f 74/90/34 106/191/34 105/189/34 73/128/34
f 88/79/34 120/192/34 119/190/34 87/80/34
f 75/89/34 107/193/34 106/191/34 74/90/34
f 89/106/34 121/194/34 120/192/34 88/79/34
f 76/110/34 108/195/34 107/193/34 75/89/34
f 90/196/34 122/197/34 121/194/34 89/106/34
f 77/77/34 109/76/34 108/195/34 76/110/34
f 91/131/34 123/167/34 122/197/34 90/196/34
f 147/198/35 179/199/35 180/200/35 148/201/35
f 37/202/31 147/198/31 148/201/31 39/203/31
f 55/204/31 156/205/31 157/206/31 57/207/31
f 11/208/31 134/209/31 135/210/31 13/211/31
f 29/212/31 143/213/31 144/214/31 31/215/31
f 47/216/31 152/217/31 153/218/31 49/219/31
f 3/220/31 130/221/31 131/222/31 5/223/31
f 21/74/31 139/73/31 140/224/31 23/225/31
f 39/203/31 148/201/31 149/226/31 41/227/31
f 57/207/31 157/206/31 158/228/31 59/229/31
f 13/211/31 135/210/31 136/230/31 15/231/31
f 31/215/31 144/214/31 145/232/31 33/233/31
f 49/219/31 153/218/31 154/234/31 51/235/31
f 5/223/31 131/222/31 132/236/31 7/237/31
f 23/225/31 140/224/31 141/238/31 25/239/31
f 41/227/31 149/226/31 150/240/31 43/241/31
f 59/229/31 158/228/31 159/242/31 61/243/31
f 15/231/31 136/230/31 137/244/31 17/245/31
f 33/233/31 145/232/31 146/246/31 35/247/31
f 51/235/31 154/234/31 155/248/31 53/249/31
f 7/237/31 132/236/31 133/250/31 9/251/31
f 25/239/31 141/238/31 142/252/31 27/253/31
f 43/241/31 150/240/31 151/254/31 45/255/31
f 61/243/31 159/242/31 160/256/31 63/257/31
f 17/245/31 137/244/31 138/72/31 19/71/31
f 35/247/31 146/246/31 147/198/31 37/202/31
f 53/249/31 155/248/31 156/205/31 55/204/31
f 9/251/31 133/250/31 134/209/31 11/208/31
f 27/253/31 142/252/31 143/213/31 29/212/31
f 45/255/31 151/254/31 152/217/31 47/216/31
f 1/258/31 129/259/31 130/221/31 3/220/31
f 63/257/31 160/256/31 129/259/31 1/258/31
f 161/260/35 192/261/35 191/262/35 190/263/35 189/264/35 188/265/35 187/266/35 186/267/35 185/268/35 184/269/35 183/270/35 182/271/35 181/272/35 180/273/35 179/274/35 178/275/35 177/276/35 176/277/35 175/278/35 174/279/35 173/280/35 172/281/35 171/282/35 170/283/35 169/284/35 168/285/35 167/286/35 166/287/35 165/288/35 164/289/35 163/290/35 162/291/35
f 134/209/35 166/292/35 167/293/35 135/210/35
f 148/201/35 180/200/35 181/294/35 149/226/35
f 135/210/35 167/293/35 168/295/35 136/230/35
f 149/226/35 181/294/35 182/296/35 150/240/35
f 136/230/35 168/295/35 169/297/35 137/244/35
f 150/240/35 182/296/35 183/298/35 151/254/35
f 137/244/35 169/297/35 170/299/35 138/72/35
f 151/254/35 183/298/35 184/300/35 152/217/35
f 138/72/35 170/299/35 171/301/35 139/73/35
f 152/217/35 184/300/35 185/302/35 153/218/35
f 139/73/35 171/301/35 172/303/35 140/224/35
f 153/218/35 185/302/35 186/304/35 154/234/35
f 140/224/35 172/303/35 173/305/35 141/238/35
f 154/234/35 186/304/35 187/306/35 155/248/35
f 141/238/35 173/305/35 174/307/35 142/252/35
f 155/248/35 187/306/35 188/308/35 156/205/35
f 142/252/35 174/307/35 175/309/35 143/213/35
f 129/259/35 161/310/35 162/311/35 130/221/35
f 156/205/35 188/308/35 189/312/35 157/206/35
f 130/221/35 162/311/35 163/313/35 131/222/35
f 157/206/35 189/312/35 190/314/35 158/228/35
f 144/214/35 176/315/35 177/316/35 145/232/35
f 131/222/35 163/313/35 164/317/35 132/236/35
f 158/228/35 190/314/35 191/318/35 159/242/35
f 145/232/35 177/316/35 178/319/35 146/246/35
f 132/236/35 164/317/35 165/320/35 133/250/35
f 159/242/35 191/318/35 192/321/35 160/256/35
f 146/246/35 178/319/35 179/199/35 147/198/35
f 133/250/35 165/320/35 166/292/35 134/209/35
f 160/256/35 192/321/35 161/310/35 129/259/35
f 190/322/36 126/323/36 125/324/36 189/325/36
f 191/326/37 127/327/37 126/323/37 190/322/37
f 192/328/38 128/329/38 127/327/38 191/326/38
f 161/330/39 98/331/39 128/329/39 192/328/39
f 162/332/40 97/333/40 98/331/40 161/330/40
f 163/334/41 99/335/41 97/333/41 162/332/41
f 164/336/42 100/337/42 99/335/42 163/334/42
f 165/338/43 101/339/43 100/337/43 164/336/43
f 166/340/44 102/341/44 101/339/44 165/338/44
f 167/342/45 103/343/45 102/341/45 166/340/45
f 168/344/46 104/345/46 103/343/46 167/342/46
f 169/346/47 105/347/47 104/345/47 168/344/47
f 170/348/48 106/349/48 105/347/48 169/346/48
f 171/350/49 107/351/49 106/349/49 170/348/49
f 172/352/50 108/353/50 107/351/50 171/350/50
f 173/354/51 109/355/51 108/353/51 172/352/51
f 174/356/52 110/357/52 109/355/52 173/354/52
f 175/358/53 111/359/53 110/357/53 174/356/53
f 176/360/54 112/361/54 111/362/54 175/363/54
f 177/364/55 113/365/55 112/361/55 176/360/55
f 178/366/56 114/367/56 113/365/56 177/364/56
f 179/368/57 115/369/57 114/367/57 178/366/57
f 180/370/58 116/371/58 115/369/58 179/368/58
f 181/372/59 117/373/59 116/371/59 180/370/59
f 182/374/60 118/375/60 117/373/60 181/372/60
f 183/376/61 119/377/61 118/375/61 182/374/61
f 184/378/62 120/379/62 119/377/62 183/376/62
f 185/380/63 121/381/63 120/379/63 184/378/63
f 186/382/64 122/383/64 121/381/64 185/380/64
f 187/384/65 123/385/65 122/383/65 186/382/65
f 188/386/66 124/387/66 123/385/66 187/384/66
f 189/325/67 125/324/67 124/387/67 188/386/67
f 175/388/35 176/315/35 144/214/35 143/213/35
